<svg id="egfpTo1QzRx1" xmlns="http://www.w3.org/2000/svg" xmlns:xlink="http://www.w3.org/1999/xlink" viewBox="0 0 300 300" shape-rendering="geometricPrecision" text-rendering="geometricPrecision" project-id="3cc127a4eacf413aa926336ad9e96b15" export-id="0807aaa543e346628a6d8f85e66b4a0e" cached="false"><defs><filter id="egfpTo1QzRx6-filter" x="-150%" y="-150%" width="400%" height="400%"><feGaussianBlur id="egfpTo1QzRx6-filter-blur-0" stdDeviation="20,20" result="result"></feGaussianBlur></filter><filter id="egfpTo1QzRx15-filter" x="-150%" y="-150%" width="400%" height="400%"><feGaussianBlur id="egfpTo1QzRx15-filter-blur-0" stdDeviation="15,8" result="result"></feGaussianBlur></filter><filter id="egfpTo1QzRx16-filter" x="-150%" y="-150%" width="400%" height="400%"><feGaussianBlur id="egfpTo1QzRx16-filter-blur-0" stdDeviation="15,8" result="result"></feGaussianBlur></filter><linearGradient id="egfpTo1QzRx25-fill" x1="0.494602" y1="0.064559" x2="0.545093" y2="1.46336" spreadMethod="pad" gradientUnits="objectBoundingBox" gradientTransform="translate(0 0)"><stop id="egfpTo1QzRx25-fill-0" offset="0%" stop-color="#65280a"></stop><stop id="egfpTo1QzRx25-fill-1" offset="100%" stop-color="#421b07"></stop></linearGradient><linearGradient id="egfpTo1QzRx27-fill" x1="0.5" y1="0.078598" x2="0.5" y2="1.11543" spreadMethod="pad" gradientUnits="objectBoundingBox" gradientTransform="translate(0 0)"><stop id="egfpTo1QzRx27-fill-0" offset="0%" stop-color="#65280a"></stop><stop id="egfpTo1QzRx27-fill-1" offset="100%" stop-color="#250f03"></stop></linearGradient><linearGradient id="egfpTo1QzRx40-fill" x1="0.476695" y1="0.031025" x2="0.449284" y2="0.724646" spreadMethod="pad" gradientUnits="objectBoundingBox" gradientTransform="translate(0 0)"><stop id="egfpTo1QzRx40-fill-0" offset="0%" stop-color="#65280a"></stop><stop id="egfpTo1QzRx40-fill-1" offset="100%" stop-color="#552208"></stop></linearGradient><linearGradient id="egfpTo1QzRx42-fill" x1="0.387663" y1="1.141148" x2="0.428836" y2="0" spreadMethod="pad" gradientUnits="objectBoundingBox" gradientTransform="translate(0 0)"><stop id="egfpTo1QzRx42-fill-0" offset="0%" stop-color="#321405"></stop><stop id="egfpTo1QzRx42-fill-1" offset="100%" stop-color="#65280a"></stop></linearGradient><linearGradient id="egfpTo1QzRx50-fill" x1="0.521503" y1="0.219671" x2="0.521503" y2="1.033401" spreadMethod="pad" gradientUnits="objectBoundingBox" gradientTransform="translate(0 0)"><stop id="egfpTo1QzRx50-fill-0" offset="0%" stop-color="#ff9c01"></stop><stop id="egfpTo1QzRx50-fill-1" offset="100%" stop-color="#ff6709"></stop></linearGradient><linearGradient id="egfpTo1QzRx59-fill" x1="0.503829" y1="0.37495" x2="0.519499" y2="1.007775" spreadMethod="pad" gradientUnits="objectBoundingBox" gradientTransform="translate(0 0)"><stop id="egfpTo1QzRx59-fill-0" offset="0%" stop-color="#53a8ec"></stop><stop id="egfpTo1QzRx59-fill-1" offset="100%" stop-color="#2161e8"></stop></linearGradient><linearGradient id="egfpTo1QzRx60-fill" x1="0.89639" y1="0.083212" x2="-0.022698" y2="1.041115" spreadMethod="pad" gradientUnits="objectBoundingBox" gradientTransform="translate(0 0)"><stop id="egfpTo1QzRx60-fill-0" offset="0%" stop-color="#56aaec"></stop><stop id="egfpTo1QzRx60-fill-1" offset="69.5014%" stop-color="#4d9fec"></stop><stop id="egfpTo1QzRx60-fill-2" offset="100%" stop-color="#2a7edc"></stop></linearGradient><linearGradient id="egfpTo1QzRx61-fill" x1="0.351785" y1="0.460439" x2="0.867206" y2="1" spreadMethod="pad" gradientUnits="objectBoundingBox" gradientTransform="translate(0 0)"><stop id="egfpTo1QzRx61-fill-0" offset="0%" stop-color="#58aaea"></stop><stop id="egfpTo1QzRx61-fill-1" offset="56.3857%" stop-color="#4495eb"></stop><stop id="egfpTo1QzRx61-fill-2" offset="100%" stop-color="#287bdc"></stop></linearGradient><filter id="egfpTo1QzRx63-filter" x="-150%" y="-150%" width="400%" height="400%"><feGaussianBlur id="egfpTo1QzRx63-filter-blur-0" stdDeviation="6,3" result="result"></feGaussianBlur></filter><linearGradient id="egfpTo1QzRx64-fill" x1="0.491228" y1="-0.556522" x2="0.494959" y2="0.868604" spreadMethod="pad" gradientUnits="objectBoundingBox" gradientTransform="translate(0 0)"><stop id="egfpTo1QzRx64-fill-0" offset="0%" stop-color="#469ce9"></stop><stop id="egfpTo1QzRx64-fill-1" offset="100%" stop-color="#256cde"></stop></linearGradient><linearGradient id="egfpTo1QzRx65-fill" x1="0.338267" y1="0.029972" x2="0.5" y2="0.922345" spreadMethod="pad" gradientUnits="objectBoundingBox" gradientTransform="translate(0 0)"><stop id="egfpTo1QzRx65-fill-0" offset="0%" stop-color="#4f9fea"></stop><stop id="egfpTo1QzRx65-fill-1" offset="100%" stop-color="#2e94dd"></stop></linearGradient><filter id="egfpTo1QzRx66-filter" x="-150%" y="-150%" width="400%" height="400%"><feGaussianBlur id="egfpTo1QzRx66-filter-blur-0" stdDeviation="8,5" result="result"></feGaussianBlur></filter><linearGradient id="egfpTo1QzRx67-fill" x1="0.671327" y1="-0.116859" x2="0.698658" y2="0.82434" spreadMethod="pad" gradientUnits="objectBoundingBox" gradientTransform="translate(0 0)"><stop id="egfpTo1QzRx67-fill-0" offset="0%" stop-color="#4e9fec"></stop><stop id="egfpTo1QzRx67-fill-1" offset="100%" stop-color="#2e94dd"></stop></linearGradient><linearGradient id="egfpTo1QzRx69-fill" x1="0.426074" y1="0.133214" x2="0.453178" y2="0.985361" spreadMethod="pad" gradientUnits="objectBoundingBox" gradientTransform="translate(0 0)"><stop id="egfpTo1QzRx69-fill-0" offset="0%" stop-color="#2e95dc"></stop><stop id="egfpTo1QzRx69-fill-1" offset="100%" stop-color="#2462db"></stop></linearGradient><linearGradient id="egfpTo1QzRx70-fill" x1="0.497574" y1="0.10919" x2="0.56598" y2="0.676543" spreadMethod="pad" gradientUnits="objectBoundingBox" gradientTransform="translate(0 0)"><stop id="egfpTo1QzRx70-fill-0" offset="0%" stop-color="#2e95dc"></stop><stop id="egfpTo1QzRx70-fill-1" offset="100%" stop-color="#2469de"></stop></linearGradient><linearGradient id="egfpTo1QzRx71-fill" x1="0.683096" y1="0.050738" x2="0.064271" y2="1.390657" spreadMethod="pad" gradientUnits="objectBoundingBox" gradientTransform="translate(0 0)"><stop id="egfpTo1QzRx71-fill-0" offset="0%" stop-color="#f49b22"></stop><stop id="egfpTo1QzRx71-fill-1" offset="100%" stop-color="#f85906"></stop></linearGradient><linearGradient id="egfpTo1QzRx72-fill" x1="0.395139" y1="0.214559" x2="0.904485" y2="1.356718" spreadMethod="pad" gradientUnits="objectBoundingBox" gradientTransform="translate(0 0)"><stop id="egfpTo1QzRx72-fill-0" offset="0%" stop-color="#f49b22"></stop><stop id="egfpTo1QzRx72-fill-1" offset="100%" stop-color="#fb5b07"></stop></linearGradient></defs><ellipse rx="70.91214" ry="6.410065" transform="matrix(1 0 0 1.409297 154.707378 237.522167)" fill="#dde0e8" stroke-width="0"></ellipse><g id="egfpTo1QzRx4"><g id="egfpTo1QzRx5"><path d="M134.178738,58.015089c-32.153108,3.146302-45.519861,46.455723-36.54502,65.063677c0,0-22.932878-14.062779-28.866177-7.190279C55.75965,130.955435,96.7388,174.307325,96.7388,174.307325c-4.277563,5.133076-13.667635,69.710433,15.807146,69.624899c26.181404-13.242765,75.476477,10.005039,88.98219-2.418025c9.735571-8.955145-22.093264-32.27677-9.724066-41.16316c5.722492-4.111204,40.229717,13.555989,48.677025,7.21896c18.782477-14.0903-45.086688-72.792212-35.749547-73.313907c17.466852-14.162313.523947-86.603686-47.680411-81.103643-6.267046.71506-18.008623.846313-22.872399,4.86264Z" transform="matrix(0.927947 0 0 0.927947 11.484925 10.535417)" opacity="0.62" filter="url(#egfpTo1QzRx6-filter)" fill="#59e6ff" stroke="#3f5787" stroke-width="0.6" stroke-linecap="round" stroke-linejoin="round"></path><path d="M112.12761,145.936271c-18.105045-6.116403-14.419904-58.040426,5.811443-72.88615c6.949421-5.099471,21.342309-10.495324,33.632557-11.681842.863302-.083344-.623296-4.252937.732073-4.664213c1.72789-.524314,3.341006,4.423259,4.080278,4.424839.724242.001547-2.255477-6.701837-.158589-7.136348c3.480734-.721268,4.030876,7.167307,4.215879,7.318364.661676.056325-.389248-4.359326.998054-4.569252c1.714548-.259445,2.229767,4.934823,2.849028,5.029314c12.662113,1.932064,25.217647,7.808615,30.058787,11.881444c21.888379,18.414596,20.067984,62.996835,4.696112,74.237146-26.265879,20.407479-59.815914,7.323116-86.915622-1.953302Z" transform="translate(0.000003 0)" fill="#41a6f0" stroke="#41a6f0" stroke-width="0.6" stroke-linecap="round" stroke-linejoin="round"></path><path d="M122.431618,147.88957c-20.666414-8.290433-20.416768-67.072887,7.82515-67.721759c27.85696-.640027,21.643525,46.504614,14.305543,47.277033l21.858769,2.008536c-9.351331-18.667233-8.003349-50.132864,12.804315-50.76786c12.899111-.393647,22.072115,11.713551,24.334594,30.643992c2.458001,20.566394-9.779137,42.697672-15.84729,47.816267l-65.281081-9.256209Z" transform="translate(0.000002 0.000003)" fill="#fcfcfd" stroke-width="0.6" stroke-linecap="round" stroke-linejoin="round"></path><g transform="translate(-58.976477 27.463419)"><g><g transform="matrix(0.721468 0 0 0.751636 107.887341 9.649392)"><g transform="matrix(1.551806 0 0 1.551806 -85.360957 -75.849891)"><g transform="translate(0 0.000001)"><g transform="translate(0 0.000001)"><ellipse rx="13.148549" ry="10.116767" transform="matrix(0.866786 0 0 0.889619 122.869253 128.499699)" filter="url(#egfpTo1QzRx15-filter)" fill="#fdcbc9" stroke-width="0"></ellipse><ellipse rx="13.148549" ry="10.116767" transform="matrix(0.858008 0 0 0.958256 179.448716 127.805308)" filter="url(#egfpTo1QzRx16-filter)" fill="#fdcbc9" stroke-width="0"></ellipse><g id="egfpTo1QzRx17" transform="matrix(0.482235 0 0 0.482235 -162.767621 -144.824301)"><g transform="matrix(0.462164 0 0 0.462164 385.087289 413.886377)"><g transform="matrix(1.074203 0 0 1.074204 53.575576 -206.137662)"><path id="egfpTo1QzRx20" d="M369.738604,393.525149c17.523063-11.136798,48.706289-8.23403,62.049434,8.975704c28.652535,33.825274-1.349133,90.126223-16.256973,71.563312-9.062826,3.584318-44.011871,12.602905-55.042816-2.471396-23.553072-28.21711-11.631531-64.15208,9.250355-78.06762Z" transform="translate(0.000001 0.000003)" fill="#502612" stroke="#552c12" stroke-width="2.048" stroke-linecap="round" stroke-linejoin="round"></path><g id="egfpTo1QzRx21"><path d="M380.5535,401.399065c-25.842051,10.654299-32.590115,49.514317-18.766281,73.053232c42.563994,15.342195,53.880682,11.006427,59.777212,6.696964c28.796163-33.423876,10.586866-72.196065,0-79.750196-11.737643-7.603035-34.818878-4.102215-41.010931,0Z" transform="translate(0.000001 0.000001)" fill="#fff" stroke="#f9fbf5" stroke-width="2.048" stroke-linecap="round" stroke-linejoin="round"></path><g transform="translate(0 3.370043)"><path d="M34.887342,0c-.000001,14.19876-6.61834,26.647545-16.553108,33.608302C13.006769,37.34097,6.725638,39.495511,0,39.495511c-19.267747,0-34.887342-17.682743-34.887342-39.495511s15.619595-39.495511,34.887342-39.495511s34.887342,17.682743,34.887342,39.495511Z" transform="matrix(1.071905 -0.09221 0.094398 1.097338 403.784284 440.259964)" fill="#b06f3a" stroke-width="2"></path><path d="M372.167708,450.827362c16.368757-25.376065,52.001084-30.534123,73.320145-6.738528c2.696472-22.28088-14.029092-49.358161-33.418905-49.448246h-7.954034c-23.407938,2.276477-38.615335,27.284775-31.947206,56.186774Z" transform="matrix(0.98426 0 0 0.987102 2.473015 6.338379)" fill="url(#egfpTo1QzRx25-fill)" stroke-linecap="round" stroke-linejoin="round"></path><g><path d="M24.244257,0c0,10.337147-3.80517,19.515451-9.688748,25.283374C10.501982,29.257219,5.461917,31.612291,0,31.612291c-13.389733,0-24.244257-14.153305-24.244257-31.612291s10.854524-31.612291,24.244257-31.612291s24.244257,14.153305,24.244257,31.612291Z" transform="matrix(1.030653 0 0 1.053654 408.498196 438.852589)" fill="url(#egfpTo1QzRx27-fill)"></path><ellipse rx="8.930676" ry="9.961139" transform="matrix(1.115758 0.212086 -0.206562 1.086698 395.484348 421.604874)" fill="#fff" stroke-width="0"></ellipse><ellipse rx="3.5" ry="3.5" transform="translate(392.926751 460.424135)" fill="#fff" stroke-width="0"></ellipse><ellipse rx="6.440392" ry="6.969355" transform="translate(422.302462 458.171794)" fill="#fff" stroke-width="0"></ellipse></g></g><path d="M347.655122,474.452298c20.93242-1.327673,51.553733,12.062848,60.083813,20.779535c1.035397,1.449455.158166,1.317376-.70534.88034-10.121272-9.245155-39.409594-19.373374-59.378473-19.811126-2.519862-.464128-3.225374-1.299899,0-1.848749Z" fill="#572f13" stroke="#572f13" stroke-width="0.5" stroke-linecap="round" stroke-linejoin="round"></path></g></g><g transform="matrix(-1.073826 0 0 1.093103 1092.844046 -215.777153)"><path id="egfpTo1QzRx33" d="M369.738604,393.525149c17.523063-11.136798,48.706289-8.23403,62.049434,8.975704c26.578006,25.504762,4.187908,79.369744-10.223607,74.096649-9.062826,3.584318-50.045237,10.069568-61.076182-5.004733-23.553072-28.21711-11.631531-64.15208,9.250355-78.06762Z" transform="translate(0.000001 0.000003)" fill="#502612" stroke="#552c12" stroke-width="2.048" stroke-linecap="round" stroke-linejoin="round"></path><g><g id="egfpTo1QzRx35"><g><path d="M380.5535,401.399065c-25.842051,10.654299-32.590115,49.514317-18.766281,73.053232c42.563994,15.342195,53.880682,11.006427,59.777212,6.696964c28.796163-33.423876,10.586866-72.196065,0-79.750196-11.737643-7.603035-34.818878-4.102215-41.010931,0Z" transform="translate(0.000001 0.000001)" fill="#fff" stroke="#f9fbf5" stroke-width="2.048" stroke-linecap="round" stroke-linejoin="round"></path><g><path d="M34.887342,0C34.887342,21.812768,19.267747,39.495511,0,39.495511s-34.887342-17.682743-34.887342-39.495511s15.619595-39.495511,34.887342-39.495511s34.887342,17.682743,34.887342,39.495511Z" transform="matrix(1.071905 -0.09221 0.094398 1.097338 404.010644 442.39516)" fill="#b06f3a" stroke-width="2"></path><path d="M371.532382,451.270008c16.368757-25.376065,52.63641-30.976769,73.955471-7.181174c3.884701-23.336031-12.843228-49.447243-33.418905-49.448246h-7.954034c-23.86116,2.276477-40.627335,27.727421-32.582532,56.62942Z" transform="matrix(0.98426 0 0 0.987102 2.913901 9.873355)" fill="url(#egfpTo1QzRx40-fill)" stroke-linecap="round" stroke-linejoin="round"></path><g><path d="M24.244257,0C24.244257,17.458986,13.389733,31.612291,0,31.612291s-24.244257-14.153305-24.244257-31.612291s10.854524-31.612291,24.244257-31.612291s24.244257,14.153305,24.244257,31.612291Z" transform="matrix(1.030653 0 0 1.053654 407.738935 444.657808)" fill="url(#egfpTo1QzRx42-fill)"></path><ellipse rx="8.930676" ry="9.961139" transform="matrix(1.115758 0.212086 -0.206562 1.086698 402.124911 423.662894)" fill="#fff" stroke-width="0"></ellipse><ellipse rx="6.440392" ry="6.969355" transform="translate(427.342819 462.292236)" fill="#fff" stroke-width="0"></ellipse><ellipse rx="3.5" ry="3.5" transform="translate(386.602841 462.292235)" fill="#fff" stroke-width="0"></ellipse></g></g></g><path d="M347.655122,474.452298c20.93242-1.327673,51.553733,12.062848,60.083813,20.779535c1.035397,1.449455.158166,1.317376-.70534.88034-10.121272-9.245155-39.409594-19.373374-59.378473-19.811126-2.519862-.464128-3.225374-1.299899,0-1.848749Z" fill="#572f13" stroke="#572f13" stroke-width="0.5" stroke-linecap="round" stroke-linejoin="round"></path></g></g></g></g></g><g transform="matrix(0.189396 0 0 0.189396 56.063034 32.362409)"><path id="egfpTo1QzRx48" d="M115.011835,104.445512c0,0,24.722276,32.700271,40.428753,33.331355c16.123894.647856,42.986807-30.777034,42.986807-30.777034-4.567476,2.095991-79.071417-.502924-83.41556-2.554321Z" transform="translate(341.129513 405.135276)" fill="#75210e" stroke="#74200e" stroke-width="0.6" stroke-linecap="round" stroke-linejoin="round"></path><path d="M160.933277,134.713291c-3.10484-1.839295-8.050288-1.499697-10.171944,0-.316663,0,2.838955,2.886016,4.90115,3.063576c1.974126.169977,5.405133-2.929237,5.270794-3.063576Z" transform="matrix(5.173755 0 0 5.173755 -308.44729 -167.806101)" fill="#f0562d" stroke="#f0562d" stroke-width="0.1"></path><path id="egfpTo1QzRx50" d="M445.660084,504.042125c4.263871,8.218721,12.913022,23.631714,21.043193,31.612726c8.186823,8.036625,20.520022,19.587041,32.219873,20.596818c11.820138-.370904,26.111054-13.49922,33.902267-22.653011c5.891861-6.922268,11.821099-18.760786,17.531659-27.261931-8.462228-1.163262-29.435992,35.6477-51.433931,37.678136-24.908554.381147-42.979611-42.215876-53.263061-39.972738Z" transform="translate(-0.140096 -1.13247)" fill="url(#egfpTo1QzRx50-fill)" stroke="#643518" stroke-width="3" stroke-linecap="round" stroke-linejoin="round"></path><path id="egfpTo1QzRx51" d="M443.542625,496.112168c20.049455-10.706965,26.472088-28.418579,42.037535-33.819934c7.880442-2.734586,23.068596-2.581626,30.810304.789408c16.294855,8.109457,31.852717,32.150184,41.637997,32.150184-5.632082,12.858251-25.729089,16.903281-25.729089,16.903281s-23.420435,3.495002-33.516328,3.192749c-11.17502-.33456-36.820954-5.747043-36.820954-5.747043s-16.912078-3.136504-18.419465-13.468645Z" transform="translate(0 0.000002)" fill="#ff9d00" stroke="#643518" stroke-width="4" stroke-linecap="round" stroke-linejoin="round"></path><path d="M498.783044,470.927138c2.959628-2.126119,5.627714-.598304,7.12867.665632c3.978041,4.511666.613526,16.771365-2.287019,24.519401-4.781874-5.813576-10.575139-16.157798-4.841651-25.185033Z" transform="translate(0 0.000002)" fill="#fff" stroke-width="2.048" stroke-linecap="round" stroke-linejoin="round"></path></g></g></g></g></g><g transform="matrix(0.473372 0 0 0.580436 -187.054175 -265.229173)"><g transform="translate(0 0.000001)"><ellipse rx="58.816511" ry="44.443999" transform="matrix(1.138308 0 0 1.232184 147.914068 199.187483)" fill="#fefdfe" stroke-width="0"></ellipse></g></g></g></g></g><path id="egfpTo1QzRx59" d="M105.278761,141.662451c-1.140735,11.867436-8.745368,33.658244-8.909209,51.263002-.172702,18.556876,9.94401,35.865995,24.784932,45.041597-4.174471-.231886,15.941105-1.851218,34.121341-2.255859c14.237708-.316891,27.001973,1.528851,35.684251,1.207211c13.151444,10.064628,22.095658-12.116985,23.320502-38.391475c1.300564-27.898793-3.065578-56.91181-12.589007-62.832193-6.506949,20.470578-26.647267,23.58712-45.321273,19.255717-24.423017-5.664876-46.975464-7.025934-51.091537-13.288Z" transform="translate(0.000002 0.000004)" fill="url(#egfpTo1QzRx59-fill)" stroke-width="0.6" stroke-linecap="round" stroke-linejoin="round"></path><path id="egfpTo1QzRx60" d="M112.127614,151.017206c.015998,2.632092-6.186887,48.721895-37.165403,40.820898-18.263565-4.658079,24.989122-54.53178,30.316552-58.520536c0,0,6.848851,17.699638,6.848851,17.699638Z" transform="translate(0 0.000003)" fill="url(#egfpTo1QzRx60-fill)" stroke-width="0.6"></path><path id="egfpTo1QzRx61" d="M192.382236,152.073162l9.309337-16.486366c-1.431899-1.238933,49.103787,50.314575,38.321438,56.251308-32.503187,17.896169-53.534775-39.028169-47.630775-39.764942Z" transform="translate(0 0.000003)" fill="url(#egfpTo1QzRx61-fill)" stroke-width="0.6"></path><path d="M122.43162,147.889573c-2.055751-.881036-28.364049,51.927792-10.304006,69.995595c18.474375,18.482313,67.429012,18.973167,87.089999,1.758522c18.305225-16.027575-2.196212-71.754118-4.804314-71.754118-23.801328,2.330317-60.555138,5.382197-71.981679.000001Z" transform="translate(-1.579499 -2.653216)" fill="#fdfcfc" stroke-width="0.6" stroke-linecap="round" stroke-linejoin="round"></path><path d="M104.32028,191.441903c3.557734-4.891885,25.803531,9.342002,29.688558,23.790047c1.487528,5.531975,32.511916,8.048836,40.212617.600265c3.812905-3.688066,13.842175-28.61363,30.966598-28.854819l-.000001,9.510821c0,0-12.220273,24.973269-22.510941,28.679065-15.941251,5.740641-37.581699,5.451554-53.456559.396205-10.274861-3.272029-24.900278-26.273439-24.900278-26.273439l.000006-7.848145Z" transform="translate(0.000008 0.000002)" filter="url(#egfpTo1QzRx63-filter)" fill="#dad9d9" stroke-width="0.6" stroke-linecap="round" stroke-linejoin="round"></path><path d="M129.265481,224.821128l-3.673328,11.354917c14.794309-1.320843,46.235154-1.352155,62.932926-.000001l-6.282422-11.751122c-13.518604,5.762645-39.983088,6.551298-52.977176.396206Z" transform="translate(0 0.000003)" fill="url(#egfpTo1QzRx64-fill)" stroke-width="0.6"></path><path d="M204.770733,186.581193c.731225,7.735918.235805,11.079396,0,10.83547s6.204575,2.093168,9.052916,4.898534l.717711-12.944689c-6.829424-7.916596-10.229694-10.208634-9.770627-2.789315Z" transform="translate(0 0.000001)" fill="url(#egfpTo1QzRx65-fill)" stroke-width="0.6"></path><path id="egfpTo1QzRx66" d="M119.784668,146.126929c18.40659,5.300411,53.824731,7.522518,73.334914-1.144602c0,0-20.625318,12.0314-31.641138,12.514884-12.676459.55637-41.693776-11.370282-41.693776-11.370282Z" filter="url(#egfpTo1QzRx66-filter)" fill="#d4d4d4" stroke-width="0.6"></path><path d="M96.738805,189.370507c2.383939-5.055741,6.011548-4.0675,7.628273-.634899l-.000001,10.158238-6.7777,4.887405c-.86695-3.371781-1.150235-10.556868-.850572-14.410744Z" transform="translate(0.000004 0.000002)" fill="url(#egfpTo1QzRx67-fill)" stroke-width="0.6"></path></g><g id="egfpTo1QzRx68" transform="translate(0 0.000001)"><path d="M19.707967,0C19.707967,13.229438,10.88441,23.954017,0,23.954017s-18.81575-11.760305-18.81575-24.989743s7.93134-22.918291,18.81575-22.918291s19.707967,10.724579,19.707967,23.954017Z" transform="matrix(0.798926 -0.332785 0.356515 0.855894 111.771206 219.792149)" fill="url(#egfpTo1QzRx69-fill)"></path><path d="M16.408306,-0.521261C15.768672,12.763062,9.230002,23.929529,0,23.707131s-18.059279-10.614044-18.059279-23.707131s8.085415-23.707131,18.059279-23.707131s16.408306,10.092783,16.408306,23.18587Z" transform="matrix(0.946771 0.269825 -0.257206 0.902493 199.999566 218.106479)" fill="url(#egfpTo1QzRx70-fill)"></path></g><path d="M194.4133,239.502002c-13.718725-1.809275-11.103673-31.415713-.511358-35.720757c2.159342-.877623,5.315671,5.666579,5.315671,5.666579s5.400393-5.847301,7.967977-4.767124c2.670451,1.123453,2.250448,9.391275,2.250448,9.391275s5.01382-3.508501,6.098031-1.925782c6.001173,8.760446-10.891207,32.204565-21.120769,27.355809Z" transform="translate(0.000003 0.000006)" fill="url(#egfpTo1QzRx71-fill)" stroke-width="0.6"></path><path d="M117.65695,241.096924c-9.874121,3.809927-28.051909-17.907651-22.677084-27.024946c1.085133-1.840707,6.99068,1.364035,6.99068,1.364035s-.999626-8.259916,1.617109-9.462993c2.713361-1.247502,8.539958,5.115131,8.539958,5.115131s2.180541-6.153701,4.165302-5.536494c10.611112,3.299769,15.230077,32.7327,1.364035,35.545267Z" fill="url(#egfpTo1QzRx72-fill)" stroke-width="0.6"></path>

</svg>